<svg xmlns="http://www.w3.org/2000/svg" fill="#000000" class="bi bi-lightning-charge" viewBox="0 0 30 30" id="Lightning-Charge--Streamline-Bootstrap" height="30" width="30">
  <desc>
    Lightning Charge Streamline Icon: https://streamlinehq.com
  </desc>
  <path d="M21.095625 0.1275a0.9375 0.9375 0 0 1 0.42562500000000003 1.0875L18.144375 12.1875H24.375a0.9375 0.9375 0 0 1 0.6825 1.580625l-15 15.9375a0.9375 0.9375 0 0 1 -1.5787499999999999 -0.91875L11.855625 17.8125H5.625a0.9375 0.9375 0 0 1 -0.6825 -1.580625l15 -15.9375a0.9375 0.9375 0 0 1 1.153125 -0.16874999999999998zM7.7943750000000005 15.9375H13.125a0.9375 0.9375 0 0 1 0.89625 1.213125L11.45625 25.48125l10.7475 -11.41875H16.875a0.9375 0.9375 0 0 1 -0.89625 -1.213125L18.543750000000003 4.518750000000001z" stroke-width="1.875"></path>
</svg>